# xmcd
#
# Track frame offsets: 
#        150
#        4439
#        18942
#        31075
#        43378
#        53273
#        67210
#        84496
#        99961
#        114174
#        139127
#        159851
#        193027
#        204991
#
# Disc length: 2963 seconds
#
# Revision: 0
# Processed by: cddbd v1.5.2PL0 Copyright (c) Steve Scherf et al.
# Submitted via: ExactAudioCopyFreeDBPlugin 1.0
#
DISCID=ac0b910e
DTITLE=Cathouse Radio - It's Gonna Be A Long Ride
DYEAR=2014
DGENRE=Blues
TTITLE0=Introduction By Dave Raven
TTITLE1=This Ol' Blues
TTITLE2=Don't Put Your Bets On Me
TTITLE3=Why Can't We Just Get Along
TTITLE4=Mississippi Dream
TTITLE5=Next Big Thing
TTITLE6=Silly Little Games
TTITLE7=Turn Off The Light
TTITLE8=You're The Kind Of Girl
TTITLE9=Gone Before The Night
TTITLE10=Paint Your Shadow On The Wall
TTITLE11=Out Of My Mind
TTITLE12=Set This Town On Fire
TTITLE13=Ramblin' Mind
EXTD=
EXTT0=
EXTT1=
EXTT2=
EXTT3=
EXTT4=
EXTT5=
EXTT6=
EXTT7=
EXTT8=
EXTT9=
EXTT10=
EXTT11=
EXTT12=
EXTT13=
PLAYORDER=
